<svg width="11" height="8" viewBox="0 0 11 8" fill="none" xmlns="http://www.w3.org/2000/svg">
<path d="M11 6.66663C11 6.90047 10.9322 7.11725 10.8235 7.30798L7.35036 3.53977L10.7859 0.625103C10.9195 0.830759 11 1.07234 11 1.33339V6.66663ZM5.50001 4.22397L10.2804 0.167998C10.0842 0.0638623 9.86332 0 9.62503 0H1.37499C1.13641 0 0.915437 0.0638623 0.720062 0.167998L5.50001 4.22397ZM6.83275 3.97859L5.72622 4.91803C5.66149 4.97271 5.5809 5.00001 5.50001 5.00001C5.41908 5.00001 5.33848 4.97271 5.27376 4.91803L4.16698 3.97854L0.649897 7.79492C0.86071 7.92317 1.10777 8 1.37497 8H9.62503C9.89218 8 10.1394 7.92317 10.3501 7.79492L6.83275 3.97859ZM0.214191 0.625081C0.0805711 0.830737 0 1.07231 0 1.33339V6.66665C0 6.90049 0.0675129 7.11727 0.176581 7.308L3.64932 3.53914L0.214191 0.625081Z" fill="#C4C4C4"/>
</svg>
