<svg width="11" height="11" viewBox="0 0 11 11" fill="none" xmlns="http://www.w3.org/2000/svg">
<path d="M0.130651 5.82999C-0.058383 5.62209 -0.0401287 5.30344 0.171409 5.11845L4.83186 1.04053C5.04339 0.855544 5.38254 0.859419 5.58962 1.04927L10.2659 5.33587C10.473 5.52572 10.4832 5.84396 10.2884 6.04638L10.1712 6.16849C9.97667 6.37091 9.66227 6.39505 9.46939 6.22223L9.11991 5.90926V10.4912C9.11991 10.7723 8.89213 10.9999 8.61121 10.9999H6.78838C6.50746 10.9999 6.27968 10.7723 6.27968 10.4912V7.28569H3.95464V10.4912C3.95868 10.7721 3.75768 10.9997 3.47677 10.9997H1.54502C1.26411 10.9997 1.03632 10.7721 1.03632 10.491V5.97377C1.03632 5.97377 0.939781 6.05835 0.820704 6.16301C0.701832 6.26747 0.452155 6.18371 0.263121 5.97561L0.130651 5.82999Z" fill="#D8D8D8"/>
</svg>
