<svg width="13" height="13" viewBox="0 0 13 13" fill="none" xmlns="http://www.w3.org/2000/svg">
<path d="M12.6474 9.97146C12.19 9.10701 10.5027 8.11821 10.5027 8.11821C10.121 7.90059 9.66047 7.87625 9.44261 8.26425C9.44261 8.26425 8.89459 8.92168 8.75505 9.01615C8.1181 9.44777 7.52815 9.43115 6.93265 8.83541L5.54861 7.45137L4.16458 6.06734C3.56884 5.4716 3.55221 4.88188 3.98383 4.24493C4.0783 4.1054 4.73574 3.55737 4.73574 3.55737C5.1235 3.33951 5.0994 2.87897 4.88178 2.49723C4.88178 2.49723 3.89298 0.810028 3.02853 0.352619C2.66077 0.157895 2.20914 0.225856 1.91489 0.520111L1.30324 1.13103C-0.635562 3.06984 0.319019 5.25904 2.25782 7.19784L4.02986 8.96988L5.8019 10.7419C7.74071 12.6807 9.9299 13.6355 11.8687 11.6965L12.4801 11.0851C12.7741 10.7908 12.8421 10.339 12.6474 9.97146Z" fill="#52C306"/>
</svg>
